<?xml version="1.0" standalone="no"?>
<!DOCTYPE svg PUBLIC "-//W3C//DTD SVG 20010904//EN"
 "http://www.w3.org/TR/2001/REC-SVG-20010904/DTD/svg10.dtd">
<svg version="1.0" xmlns="http://www.w3.org/2000/svg"
 width="750.000000pt" height="750.000000pt" viewBox="0 0 450.000000 450.000000"
 preserveAspectRatio="xMidYMid meet">

<g transform="translate(0.000000,450.000000) scale(0.100000,-0.100000)"
fill="#000000" stroke="none">
<path d="M1700 3303 c-46 -17 -50 -31 -50 -160 0 -118 1 -125 25 -148 31 -32
75 -32 109 -2 25 21 26 26 27 142 0 66 -2 127 -6 136 -11 29 -67 46 -105 32z"/>
<path d="M2680 3303 c-46 -17 -50 -31 -50 -160 0 -118 1 -125 25 -148 31 -32
75 -32 110 -2 26 21 26 25 26 139 1 65 -2 126 -5 136 -10 31 -66 50 -106 35z"/>
<path d="M1431 3094 c-60 -30 -95 -76 -110 -144 -7 -29 -10 -297 -8 -765 2
-716 2 -720 24 -760 27 -50 58 -80 105 -100 32 -13 104 -15 489 -15 l451 0
-19 33 -19 32 -435 3 c-478 3 -454 -1 -503 66 -21 27 -21 37 -21 604 l0 577
838 3 837 2 0 -214 0 -214 31 -11 c18 -6 34 -11 36 -11 2 0 3 177 1 393 l-3
392 -25 45 c-14 24 -44 57 -67 74 -35 24 -55 30 -116 34 l-74 4 -5 -56 c-6
-67 -28 -103 -82 -130 -80 -40 -165 24 -174 130 l-4 54 -359 0 -359 0 0 -47
c0 -112 -108 -184 -193 -128 -33 22 -67 91 -67 138 l0 37 -58 0 c-43 0 -72 -7
-111 -26z"/>
<path d="M1604 2497 c-2 -7 -3 -62 -2 -123 l3 -109 110 -3 c86 -2 112 0 120
12 12 15 12 207 1 225 -11 17 -225 15 -232 -2z"/>
<path d="M1944 2497 c-2 -7 -3 -62 -2 -123 l3 -109 114 -3 c85 -2 117 1 123
10 13 21 10 212 -4 226 -18 18 -227 17 -234 -1z"/>
<path d="M2284 2497 c-2 -7 -3 -62 -2 -123 l3 -109 114 -3 c85 -2 117 1 123
10 13 21 10 212 -4 226 -18 18 -227 17 -234 -1z"/>
<path d="M2584 2497 c-2 -7 -3 -62 -2 -123 l3 -109 120 0 120 0 0 120 0 120
-118 3 c-91 2 -119 0 -123 -11z"/>
<path d="M1608 2128 c-2 -13 -1 -68 2 -123 l5 -100 115 0 115 0 3 123 3 122
-120 0 c-116 0 -120 -1 -123 -22z"/>
<path d="M1952 2028 l3 -123 115 0 115 0 3 123 3 122 -121 0 -121 0 3 -122z"/>
<path d="M2292 2028 l3 -123 32 -3 c28 -3 35 2 59 40 15 24 56 73 91 109 89
92 84 99 -68 99 l-120 0 3 -122z"/>
<path d="M2783 2135 c-80 -18 -189 -75 -246 -130 -174 -166 -214 -412 -105
-629 39 -78 145 -184 219 -220 212 -103 456 -64 614 98 135 138 183 314 135
500 -49 194 -204 339 -402 380 -91 19 -132 19 -215 1z m268 -105 c110 -42 206
-138 251 -250 18 -44 22 -75 23 -161 0 -101 -1 -108 -37 -180 -111 -224 -365
-316 -583 -209 -79 39 -125 78 -170 146 -57 86 -77 161 -73 270 3 81 8 100 41
166 56 114 157 199 277 233 73 20 197 13 271 -15z"/>
<path d="M2860 1970 c-21 -13 -32 -334 -12 -367 12 -22 17 -23 182 -23 179 0
200 5 200 50 0 42 -24 50 -160 50 l-128 0 -4 136 c-3 121 -5 137 -22 150 -23
16 -35 17 -56 4z"/>
<path d="M1621 1786 c-8 -9 -11 -51 -9 -122 l3 -109 120 0 120 0 3 114 c2 85
-1 117 -10 123 -23 14 -214 10 -227 -6z"/>
<path d="M1962 1788 c-13 -13 -17 -192 -6 -222 5 -13 26 -16 125 -16 l119 0 0
119 c0 99 -3 120 -16 125 -30 11 -209 7 -222 -6z"/>
</g>
</svg>
