<?xml version="1.0" standalone="no"?>
<!DOCTYPE svg PUBLIC "-//W3C//DTD SVG 20010904//EN"
 "http://www.w3.org/TR/2001/REC-SVG-20010904/DTD/svg10.dtd">
<svg version="1.0" xmlns="http://www.w3.org/2000/svg"
 width="1840.000000pt" height="1024.000000pt" viewBox="0 0 920.000000 512.000000"
 preserveAspectRatio="xMidYMid meet">

<g transform="translate(0.000000,512.000000) scale(0.100000,-0.100000)"
fill="#000000" stroke="none">
<path d="M4524 5110 c-152 -22 -290 -140 -347 -297 -22 -57 -22 -69 -25 -930
l-3 -872 -872 -3 c-861 -3 -873 -4 -930 -25 -162 -59 -274 -194 -298 -358 -30
-215 91 -413 298 -488 57 -21 69 -22 931 -25 l872 -3 0 -827 c0 -491 4 -855
10 -897 28 -193 183 -348 374 -376 216 -30 414 90 489 298 21 57 22 69 25 930
l3 872 872 3 c861 3 873 4 930 25 208 75 328 273 298 489 -28 191 -183 346
-376 374 -42 6 -406 10 -897 10 l-828 0 0 833 c0 516 -4 857 -10 897 -30 189
-185 343 -372 370 -70 11 -72 11 -144 0z"/>
</g>
</svg>
